<svg width="240" height="35" viewBox="0 0 240 35" fill="none" xmlns="http://www.w3.org/2000/svg">
<g clip-path="url(#clip0_282_533)">
<path d="M65.1982 26.521C65.3563 26.3714 65.566 26.2914 65.7816 26.2985C65.9973 26.3055 66.2015 26.399 66.3499 26.5586C67.0071 27.3286 67.8152 27.9497 68.7221 28.3822C69.629 28.8147 70.6147 29.0489 71.6157 29.0698C73.562 29.0698 75.7545 28.2286 75.7545 26.6716C75.7545 24.9828 74.3503 24.1604 71.4433 23.5326C67.3538 22.6851 64.4591 21.0214 64.4591 17.3801C64.4591 14.5613 67.2306 11.7802 71.4864 11.7802C73.817 11.7916 76.0717 12.6257 77.867 14.1407C77.9501 14.2094 78.019 14.2942 78.0698 14.3901C78.1207 14.4861 78.1525 14.5913 78.1633 14.6998C78.1742 14.8083 78.164 14.9179 78.1332 15.0223C78.1024 15.1267 78.0517 15.224 77.9841 15.3084C77.9692 15.3267 77.9527 15.3435 77.9348 15.3586L76.7954 16.5703C76.6527 16.7173 76.4616 16.805 76.2591 16.8166C76.0566 16.8282 75.857 16.7628 75.6991 16.6331C74.5105 15.6117 73.0159 15.0337 71.4618 14.9945C68.9982 14.9945 67.8157 16.2124 67.8157 17.4743C67.8157 18.9622 69.3062 19.7532 72.4472 20.425C76.0871 21.2286 79.1789 22.616 79.1789 26.5775C79.1789 30.3443 75.2988 32.2591 71.6157 32.2591C70.1764 32.2504 68.7542 31.9393 67.438 31.3452C66.1219 30.7511 64.9401 29.8868 63.9664 28.8062C63.8227 28.6426 63.7474 28.4283 63.7566 28.2089C63.7658 27.9896 63.8588 27.7826 64.0157 27.6322L65.1982 26.521Z" fill="#112857"/>
<path d="M100.766 22.1515C100.766 22.5345 100.766 22.9112 100.722 23.2941H85.3252C85.5284 26.2385 88.2938 28.9444 91.8783 28.9444C92.8462 28.9412 93.8038 28.7426 94.696 28.36C95.5882 27.9775 96.3972 27.4186 97.0764 26.7157C97.2308 26.5608 97.4387 26.474 97.6553 26.474C97.8719 26.474 98.0799 26.5608 98.2343 26.7157L99.2751 27.8332C99.4263 27.9884 99.5111 28.1983 99.5111 28.417C99.5111 28.6358 99.4263 28.8456 99.2751 29.0009C97.3242 31.0253 94.6681 32.1827 91.8844 32.2215C86.1012 32.2215 81.9316 27.7641 81.9316 21.9883C81.9316 16.2125 85.7317 11.7551 91.4718 11.7551C96.7992 11.7928 100.766 15.8735 100.766 22.1515ZM97.372 20.3435C97.226 18.8658 96.5348 17.4999 95.4383 16.522C94.3418 15.5441 92.9218 15.0273 91.4656 15.0762C89.9915 15.025 88.5519 15.5367 87.4286 16.511C86.3053 17.4854 85.5793 18.8521 85.3929 20.3435H97.372Z" fill="#112857"/>
<path d="M121.065 19.2511V30.9219C121.065 31.1423 120.98 31.3537 120.828 31.5101C120.675 31.6666 120.469 31.7553 120.252 31.7569H118.405C118.189 31.7569 117.981 31.6698 117.828 31.5146C117.674 31.3593 117.587 31.1486 117.586 30.9282V19.8412C117.586 16.495 115.559 15.0762 113.003 15.0762C109.924 15.0762 108.267 18.3659 108.267 18.3659V30.9219C108.266 31.1429 108.179 31.3543 108.025 31.5105C107.872 31.6668 107.665 31.7553 107.448 31.7569H105.6C105.384 31.7569 105.177 31.6698 105.023 31.5146C104.87 31.3593 104.783 31.1486 104.781 30.9282V13.1112C104.781 12.8897 104.868 12.6773 105.021 12.5208C105.175 12.3642 105.383 12.2762 105.6 12.2762H107.183C107.294 12.2702 107.406 12.2874 107.51 12.3267C107.614 12.366 107.71 12.4265 107.79 12.5047C107.871 12.5828 107.935 12.6769 107.979 12.7812C108.023 12.8854 108.046 12.9977 108.045 13.1112V14.9946C108.665 13.9838 109.53 13.1537 110.558 12.585C111.585 12.0162 112.74 11.7282 113.909 11.7488C117.678 11.7928 121.065 14.4484 121.065 19.2511Z" fill="#112857"/>
<path d="M140.428 14.6994V2.67702C140.428 2.45665 140.514 2.24522 140.666 2.08881C140.818 1.9324 141.025 1.8437 141.241 1.84204H143.089C143.306 1.84368 143.513 1.93218 143.666 2.08842C143.82 2.24465 143.906 2.45608 143.908 2.67702V30.9281C143.906 31.1491 143.82 31.3605 143.666 31.5167C143.513 31.673 143.306 31.7615 143.089 31.7631H141.555C141.339 31.7615 141.132 31.6728 140.98 31.5164C140.828 31.3599 140.742 31.1485 140.742 30.9281V28.9317C140.036 30.0024 139.073 30.8713 137.944 31.4558C136.815 32.0404 135.559 32.3212 134.294 32.2716C129.133 32.2716 125.056 27.7703 125.056 22.0385C125.056 16.3066 129.151 11.8053 134.294 11.8053C135.467 11.7697 136.631 12.0126 137.696 12.5149C138.761 13.0172 139.696 13.7651 140.428 14.6994ZM140.428 18.4663C140.428 18.4663 138.581 15.095 134.805 15.095C131.03 15.095 128.486 18.234 128.486 22.0447C128.486 25.8555 130.95 28.9945 134.805 28.9945C138.661 28.9945 140.428 25.6232 140.428 25.6232V18.4663Z" fill="#112857"/>
<path d="M165.354 29.1201C163.575 30.9675 161.193 32.0845 158.659 32.2591C157.317 32.3218 155.976 32.1069 154.717 31.6271C153.459 31.1474 152.308 30.4129 151.336 29.4678C150.363 28.5228 149.589 27.3868 149.058 26.1283C148.528 24.8698 148.253 23.5149 148.25 22.1452C148.201 16.3757 152.432 11.8053 158.105 11.8053C160.706 11.8192 163.205 12.8403 165.095 14.6618C165.174 14.7354 165.238 14.8243 165.284 14.9232C165.329 15.0222 165.355 15.1293 165.359 15.2384C165.364 15.3475 165.347 15.4564 165.31 15.5589C165.273 15.6615 165.217 15.7555 165.144 15.8358C165.131 15.8556 165.114 15.8726 165.095 15.886L163.919 16.9282C163.768 17.065 163.573 17.1405 163.371 17.1405C163.168 17.1405 162.973 17.065 162.822 16.9282C161.52 15.7415 159.833 15.0866 158.086 15.0887C154.243 15.0887 151.73 18.2277 151.73 22.0385C151.73 25.8492 154.237 28.9694 158.068 28.9694C159.005 28.9731 159.934 28.7856 160.799 28.418C161.664 28.0503 162.448 27.5099 163.106 26.8286C163.26 26.6737 163.468 26.5869 163.685 26.5869C163.901 26.5869 164.109 26.6737 164.264 26.8286L165.323 27.9461C165.479 28.0982 165.569 28.3069 165.575 28.5267C165.581 28.7465 165.501 28.9597 165.354 29.1201Z" fill="#112857"/>
<path d="M170.195 1.84204H172.043C172.259 1.8437 172.466 1.9324 172.618 2.08881C172.77 2.24522 172.856 2.45665 172.856 2.67702V30.9281C172.856 31.1485 172.77 31.3599 172.618 31.5163C172.466 31.6728 172.259 31.7615 172.043 31.7631H170.195C169.978 31.7615 169.771 31.673 169.618 31.5167C169.464 31.3605 169.378 31.1491 169.376 30.9281V2.67702C169.376 2.45665 169.461 2.24522 169.614 2.08881C169.766 1.9324 169.973 1.8437 170.189 1.84204H170.195Z" fill="#112857"/>
<path d="M196.875 22.0259C196.875 27.7577 192.663 32.2591 187.021 32.2591C181.38 32.2591 177.167 27.7577 177.167 22.0259C177.167 16.2941 181.386 11.7927 187.021 11.7927C192.657 11.7927 196.875 16.3003 196.875 22.0259ZM193.408 22.0259C193.408 18.1963 190.883 15.0761 187.04 15.0761C183.197 15.0761 180.684 18.2151 180.684 22.0259C180.684 25.8367 183.184 28.9757 187.04 28.9757C190.895 28.9757 193.408 25.8555 193.408 22.0259Z" fill="#112857"/>
<path d="M200.829 24.748V13.052C200.831 12.9427 200.854 12.8347 200.896 12.7344C200.939 12.634 201.001 12.5433 201.078 12.4674C201.155 12.3916 201.247 12.332 201.347 12.2923C201.447 12.2526 201.553 12.2334 201.661 12.2359H203.508C203.714 12.2484 203.908 12.3391 204.052 12.4902C204.196 12.6412 204.278 12.8417 204.284 13.052V24.1578C204.284 27.4978 206.304 28.9166 208.873 28.9166C212.088 28.9166 213.609 25.7148 213.609 25.7148V13.052C213.608 12.9432 213.628 12.8353 213.668 12.7344C213.708 12.6335 213.768 12.5417 213.843 12.4642C213.917 12.3867 214.007 12.3249 214.105 12.2825C214.203 12.2401 214.309 12.2179 214.416 12.217H216.263C216.476 12.2251 216.677 12.3165 216.825 12.472C216.973 12.6276 217.056 12.8353 217.058 13.052V30.8628C217.058 31.0842 216.971 31.2966 216.818 31.4532C216.664 31.6098 216.456 31.6978 216.239 31.6978H214.656C214.439 31.6961 214.232 31.6076 214.078 31.4514C213.925 31.2952 213.838 31.0837 213.837 30.8628V28.6906C213.248 29.748 212.396 30.6282 211.366 31.2422C210.337 31.8563 209.166 32.1823 207.973 32.1874C204.216 32.2 200.829 29.5507 200.829 24.748Z" fill="#112857"/>
<path d="M236.545 14.6404V2.61795C236.544 2.50645 236.565 2.39592 236.607 2.29297C236.649 2.19002 236.711 2.09678 236.789 2.01882C236.868 1.94086 236.96 1.87978 237.062 1.83926C237.164 1.79874 237.273 1.77959 237.382 1.78297H239.23C239.446 1.78463 239.653 1.87333 239.805 2.02974C239.958 2.18615 240.043 2.39759 240.043 2.61795V30.8691C240.043 31.0894 239.958 31.3009 239.805 31.4573C239.653 31.6137 239.446 31.7024 239.23 31.704H237.684C237.468 31.7041 237.261 31.6169 237.107 31.4617C236.954 31.3065 236.867 31.0957 236.865 30.8753V28.8727C236.159 29.9424 235.197 30.8107 234.069 31.3952C232.942 31.9797 231.687 32.261 230.423 32.2126C225.256 32.2126 221.185 27.7112 221.185 21.9794C221.185 16.2475 225.274 11.7462 230.423 11.7462C231.593 11.7135 232.755 11.9579 233.818 12.46C234.88 12.9622 235.813 13.7085 236.545 14.6404ZM236.545 18.4072C236.545 18.4072 234.697 15.0359 230.922 15.0359C227.146 15.0359 224.603 18.1749 224.603 21.9857C224.603 25.7964 227.036 28.9354 230.922 28.9354C234.808 28.9354 236.545 25.5641 236.545 25.5641V18.4072Z" fill="#112857"/>
<path d="M50.7185 23.357C50.7135 20.437 49.654 17.621 47.7422 15.4464C45.8304 13.2718 43.2001 11.8908 40.3531 11.5669C39.4296 8.23855 37.4655 5.3085 34.7593 3.2219C32.053 1.1353 28.7525 0.00622559 25.3593 0.00622559C21.966 0.00622559 18.6655 1.1353 15.9593 3.2219C13.253 5.3085 11.2889 8.23855 10.3654 11.5669C7.51846 11.8908 4.88815 13.2718 2.97633 15.4464C1.06451 17.621 0.00501817 20.437 0 23.357C0.0387405 26.3141 1.15376 29.1511 3.12871 31.3175C5.45062 33.7723 8.8257 35.0279 13.1616 35.0279C17.3201 35.028 21.4469 34.2886 25.3562 32.8431C29.2651 34.2917 33.3916 35.0352 37.5508 35.0404C41.862 35.0404 45.2617 33.7848 47.5898 31.3615C49.5619 29.1983 50.6768 26.3663 50.7185 23.4135V23.357ZM47.5405 23.4009C47.4899 25.5176 46.6867 27.5434 45.2802 29.1014C43.5742 30.8781 40.969 31.7758 37.5508 31.7758C32.929 31.7705 28.361 30.7648 24.149 28.8252C22.4103 28.047 20.7585 27.081 19.2219 25.9436C19.1795 25.9105 19.1457 25.8674 19.1234 25.818C19.1142 25.7745 19.1142 25.7296 19.1234 25.6861V18.9184C19.1235 18.8588 19.1397 18.8004 19.1701 18.7495C19.2005 18.6986 19.244 18.6572 19.2958 18.6296L25.233 15.4906C25.2785 15.4659 25.3293 15.453 25.3808 15.453C25.4324 15.453 25.4831 15.4659 25.5286 15.4906L31.4658 18.6296C31.5186 18.656 31.5629 18.6972 31.5934 18.7484C31.624 18.7995 31.6396 18.8585 31.6383 18.9184V25.6799C31.637 25.7603 31.6088 25.8379 31.5582 25.8996C30.6439 26.6142 29.669 27.2445 28.645 27.783C30.0929 28.2294 31.5709 28.5673 33.0671 28.7938C33.4305 28.5364 33.6214 28.3731 33.6399 28.3606C34.003 28.0223 34.2938 27.6113 34.4941 27.1533C34.6943 26.6953 34.7998 26.2001 34.8039 25.6987V18.9184C34.8065 18.262 34.6306 17.6177 34.2957 17.0569C33.9609 16.4962 33.4802 16.041 32.907 15.7418L26.9698 12.6404C26.4756 12.3805 25.9276 12.2449 25.3716 12.2449C24.8155 12.2449 24.2675 12.3805 23.7733 12.6404L17.8177 15.7418C17.2429 16.0395 16.7606 16.4943 16.4245 17.0552C16.0885 17.6161 15.9119 18.2612 15.9146 18.9184V25.6799C15.9187 26.1813 16.0242 26.6765 16.2245 27.1345C16.4247 27.5925 16.7155 28.0035 17.0786 28.3418H17.1156C18.3028 29.2731 19.5706 30.0926 20.9033 30.7902C18.3698 31.4244 15.7704 31.7448 13.1616 31.7444C9.73722 31.7444 7.13816 30.8467 5.43215 29.07C4.02307 27.5142 3.22127 25.4865 3.17799 23.3696V23.3193C3.18449 21.0375 4.07705 18.8512 5.6605 17.2382C7.24395 15.6253 9.38948 14.7171 11.628 14.7122H12.9337L13.1985 13.4314C13.7442 10.5518 15.2564 7.95564 17.4755 6.08877C19.6946 4.2219 22.482 3.2008 25.3593 3.2008C28.2365 3.2008 31.024 4.2219 33.243 6.08877C35.4621 7.95564 36.9743 10.5518 37.52 13.4314L37.7725 14.7373H39.0659C41.3082 14.7406 43.4578 15.6496 45.0439 17.2652C46.63 18.8808 47.5233 21.0713 47.5282 23.357V23.4009H47.5405Z" fill="#1D97FF"/>
</g>
<defs>
<clipPath id="clip0_282_533">
<rect width="240" height="35" fill="white"/>
</clipPath>
</defs>
</svg>
